<?xml version="1.0" standalone="no"?>
<!DOCTYPE svg PUBLIC "-//W3C//DTD SVG 20010904//EN"
 "http://www.w3.org/TR/2001/REC-SVG-20010904/DTD/svg10.dtd">
<svg version="1.0" xmlns="http://www.w3.org/2000/svg"
 width="331.000000pt" height="80.000000pt" viewBox="0 0 331.000000 80.000000"
 preserveAspectRatio="xMidYMid meet">

<g transform="translate(0.000000,80.000000) scale(0.100000,-0.100000)"
fill="#000000" stroke="none">
<path d="M1290 375 c0 -320 5 -389 23 -341 8 21 9 659 1 680 -19 50 -24 -15
-24 -339z"/>
<path d="M1480 376 l0 -226 64 0 c116 0 149 30 149 131 0 45 -5 67 -21 88 -19
26 -19 29 -4 45 12 12 17 34 17 76 0 86 -20 104 -125 108 l-80 4 0 -226z m128
152 c7 -7 12 -31 12 -54 0 -44 -10 -54 -54 -54 -17 0 -21 5 -20 28 1 15 3 42
3 60 1 27 5 32 24 32 13 0 28 -5 35 -12z m6 -184 c10 -10 16 -33 16 -64 0 -53
-19 -75 -62 -68 -18 3 -20 10 -20 71 1 37 1 69 1 72 2 12 51 4 65 -11z"/>
<path d="M1740 375 l0 -225 90 0 c50 0 90 3 91 8 0 4 2 17 5 30 4 21 1 22 -56
22 l-60 0 0 195 0 195 -35 0 -35 0 0 -225z"/>
<path d="M1989 571 l-29 -29 0 -167 0 -167 29 -29 c39 -39 106 -41 148 -5 l28
24 0 177 0 177 -28 24 c-42 36 -109 34 -148 -5z m106 -196 l0 -160 -24 -3
c-43 -6 -51 19 -51 161 0 144 8 170 48 165 l27 -3 0 -160z"/>
<path d="M2253 576 l-28 -24 0 -177 0 -177 28 -24 c31 -26 92 -33 129 -13 32
17 48 71 48 159 l0 80 -50 0 c-49 0 -50 -1 -50 -30 0 -22 5 -30 18 -30 15 0
16 -8 12 -62 -5 -62 -5 -63 -35 -63 l-30 0 -5 145 c-3 80 -2 153 3 163 9 19
52 23 63 6 4 -7 7 -24 8 -38 1 -22 6 -27 34 -29 29 -3 32 -1 32 23 0 37 -25
92 -48 104 -37 20 -98 13 -129 -13z"/>
<path d="M2480 375 l0 -225 30 0 29 0 3 103 3 102 40 0 40 0 3 -102 3 -103 29
0 30 0 0 225 0 225 -30 0 -30 0 0 -90 0 -90 -45 0 -45 0 0 90 0 90 -30 0 -30
0 0 -225z"/>
<path d="M2752 400 l3 -202 28 -24 c20 -17 40 -24 68 -24 96 0 109 32 109 270
l0 180 -29 0 c-16 0 -31 -6 -33 -12 -3 -7 -6 -92 -7 -188 -1 -96 -6 -179 -10
-183 -5 -5 -19 -7 -32 -5 l-24 3 -5 190 -5 190 -33 3 -33 3 3 -201z"/>
<path d="M3010 375 l0 -225 65 0 c89 0 130 18 145 65 17 51 8 130 -18 158 -20
22 -20 22 -1 46 12 15 19 39 19 67 0 89 -32 114 -146 114 l-64 0 0 -225z m128
156 c9 -5 12 -25 10 -57 -3 -47 -4 -49 -35 -52 l-33 -3 0 60 c0 57 2 61 23 61
12 0 28 -4 35 -9z m3 -181 c15 -9 19 -22 19 -63 0 -60 -12 -77 -52 -77 l-28 0
0 75 c0 69 2 75 21 75 11 0 29 -5 40 -10z"/>
<path d="M517 554 c-20 -20 6 -114 50 -176 14 -21 67 -72 119 -113 51 -42 96
-85 99 -96 5 -14 15 -19 43 -19 l36 0 -30 31 c-16 17 -65 59 -109 94 -128 99
-178 165 -162 209 3 8 18 16 33 18 26 3 26 3 8 25 -20 24 -73 40 -87 27z"/>
<path d="M458 534 c-27 -27 13 -160 69 -226 101 -121 143 -159 171 -156 26 3
22 8 -71 97 -104 102 -147 169 -157 249 -3 24 -8 40 -12 36z"/>
<path d="M407 468 c-14 -69 9 -144 74 -239 21 -32 39 -63 39 -68 0 -6 14 -11
30 -11 17 0 30 3 30 8 0 4 -26 39 -59 79 -67 82 -92 135 -101 213 l-5 55 -8
-37z"/>
<path d="M748 483 c-16 -2 -28 -9 -28 -14 0 -15 56 -10 70 6 13 16 13 16 -42
8z"/>
<path d="M835 460 c-10 -19 -23 -30 -38 -30 -18 -1 -15 -5 18 -24 92 -55 241
-192 251 -231 5 -19 13 -25 34 -25 l28 0 -5 62 c-7 72 -32 119 -62 111 -10 -3
-50 9 -89 26 -39 17 -75 31 -80 31 -5 0 -17 9 -27 20 -15 17 -16 24 -7 46 24
51 3 64 -23 14z"/>
<path d="M911 454 c-7 -19 -10 -38 -7 -42 10 -9 34 20 41 51 11 42 -18 35 -34
-9z"/>
<path d="M623 464 c-11 -30 22 -66 150 -161 72 -53 137 -109 146 -125 11 -20
24 -28 44 -28 61 0 21 46 -143 164 -146 106 -153 112 -148 139 4 18 0 23 -19
25 -14 1 -26 -5 -30 -14z"/>
<path d="M978 410 c-16 -18 -16 -19 4 -25 28 -10 47 11 27 30 -13 13 -17 13
-31 -5z"/>
<path d="M361 345 c0 -38 6 -92 14 -118 8 -27 13 -54 12 -60 -1 -7 10 -13 26
-15 36 -4 36 19 0 88 -15 28 -32 79 -39 113 l-12 62 -1 -70z"/>
<path d="M249 333 c-13 -16 -12 -17 4 -4 16 13 21 21 13 21 -2 0 -10 -8 -17
-17z"/>
<path d="M310 327 c0 -1 -13 -40 -30 -87 -16 -47 -30 -86 -30 -87 0 -9 50 -1
57 10 7 11 14 167 6 167 -1 0 -3 -1 -3 -3z"/>
<path d="M234 267 c-34 -39 -47 -72 -17 -45 18 17 58 78 50 78 -2 0 -17 -15
-33 -33z"/>
</g>
</svg>
